<svg xmlns="http://www.w3.org/2000/svg"  viewBox="0 0 50 50" width="50px" height="50px" baseProfile="basic"><path fill="#ea4731" d="M30.5,16.988c-0.129,0-0.258-0.05-0.355-0.148c-0.194-0.196-0.192-0.513,0.004-0.707l1.998-1.975 c0.197-0.194,0.513-0.192,0.707,0.004c0.194,0.196,0.192,0.513-0.004,0.707l-1.998,1.975C30.754,16.94,30.627,16.988,30.5,16.988z"/><path fill="#ea4731" d="M32.486,17c-0.129,0-0.258-0.05-0.355-0.148l-1.975-1.998c-0.194-0.196-0.192-0.513,0.004-0.707 c0.197-0.195,0.513-0.191,0.707,0.004l1.975,1.998c0.194,0.196,0.192,0.513-0.004,0.707C32.74,16.952,32.613,17,32.486,17z"/><linearGradient id="AC3PKAqf4kmbskwey4Fh_a" x1="18.534" x2="28.471" y1="42.043" y2="4.958" gradientUnits="userSpaceOnUse"><stop offset="0" stop-color="#fac424"/><stop offset=".374" stop-color="#ea4731"/><stop offset=".94" stop-color="#8f3192"/></linearGradient><path fill="url(#AC3PKAqf4kmbskwey4Fh_a)" d="M29.489,40.952c-0.276,0-0.5-0.224-0.5-0.499c0-0.276,0.223-0.501,0.5-0.501	c0.839-0.001,1.528-0.003,1.991-0.007c0.001,0,0.003,0,0.004,0c0.274,0,0.498,0.221,0.5,0.496s-0.22,0.502-0.496,0.504	C31.023,40.949,30.332,40.951,29.489,40.952L29.489,40.952z M27.493,40.951l-1.999-0.003c-0.276-0.001-0.5-0.226-0.499-0.501	c0.001-0.276,0.225-0.499,0.5-0.499c0,0,0.001,0,0.001,0l1.996,0.003c0.276,0,0.5,0.224,0.5,0.5S27.769,40.951,27.493,40.951z M23.496,40.943l-1.999-0.01c-0.276-0.002-0.499-0.227-0.497-0.503c0.001-0.275,0.225-0.497,0.5-0.497c0.001,0,0.002,0,0.003,0	l1.977,0.01l0.019,0.5L23.496,40.943z M19.501,40.921c-0.001,0-0.002,0-0.003,0l-1.999-0.017c-0.276-0.003-0.498-0.229-0.495-0.505	c0.002-0.274,0.226-0.495,0.5-0.495c0.001,0,0.003,0,0.005,0l1.996,0.017c0.276,0.002,0.499,0.228,0.497,0.504	C20,40.699,19.776,40.921,19.501,40.921z M15.505,40.877c-0.003,0-0.006,0-0.009,0c-1.253-0.022-1.356-0.043-1.424-0.057	l-0.235-0.052c-0.013-0.002-0.026-0.004-0.038-0.006c-0.136-0.029-0.27-0.062-0.404-0.097c-0.267-0.07-0.426-0.344-0.356-0.61	c0.07-0.268,0.346-0.427,0.611-0.356c0.109,0.028,0.218,0.055,0.329,0.079c0.014,0.002,0.028,0.004,0.041,0.007l0.255,0.057	c0.012,0,0.208,0.017,1.239,0.035c0.276,0.005,0.496,0.232,0.491,0.509C16,40.659,15.777,40.877,15.505,40.877z M33.456,40.69	c-0.221,0-0.423-0.147-0.483-0.372c-0.071-0.267,0.088-0.54,0.355-0.611c0.293-0.077,0.582-0.172,0.866-0.279	c0.214-0.08,0.418-0.17,0.623-0.267c0.103-0.045,0.188-0.087,0.272-0.13c0.247-0.125,0.547-0.025,0.672,0.221	s0.026,0.547-0.221,0.672c-0.101,0.051-0.204,0.101-0.309,0.146c-0.215,0.104-0.446,0.203-0.686,0.293	c-0.315,0.119-0.636,0.224-0.962,0.311C33.541,40.686,33.498,40.69,33.456,40.69z M11.664,39.972c-0.077,0-0.155-0.018-0.228-0.055	l-0.247-0.131c-0.28-0.155-0.554-0.324-0.818-0.506c-0.237-0.162-0.467-0.335-0.688-0.516c-0.213-0.176-0.244-0.49-0.069-0.704	c0.176-0.213,0.49-0.244,0.704-0.069c0.198,0.163,0.405,0.318,0.619,0.464c0.239,0.165,0.485,0.316,0.736,0.455l0.22,0.116	c0.246,0.126,0.343,0.428,0.217,0.674C12.021,39.872,11.846,39.972,11.664,39.972z M37.396,38.696l-0.414-0.308l-0.268-0.427	c0.488-0.396,0.894-0.807,1.291-1.294c0.175-0.215,0.489-0.245,0.703-0.072c0.214,0.174,0.247,0.489,0.072,0.703	C38.34,37.84,37.887,38.298,37.396,38.696z M36.983,38.389h0.01H36.983z M8.596,37.467c-0.146,0-0.29-0.063-0.388-0.185	c-0.196-0.24-0.379-0.489-0.556-0.755c-0.221-0.332-0.419-0.67-0.588-1.005c-0.125-0.247-0.025-0.548,0.221-0.672	c0.247-0.125,0.547-0.025,0.671,0.221c0.151,0.3,0.329,0.603,0.528,0.901c0.159,0.238,0.323,0.462,0.499,0.679	c0.174,0.214,0.142,0.529-0.072,0.703C8.818,37.43,8.707,37.467,8.596,37.467z M39.479,35.815c-0.076,0-0.154-0.018-0.227-0.055	c-0.246-0.125-0.344-0.426-0.219-0.672c0.288-0.565,0.515-1.157,0.674-1.761c0.071-0.267,0.345-0.428,0.611-0.355	c0.267,0.07,0.426,0.345,0.355,0.611c-0.178,0.672-0.43,1.33-0.75,1.958C39.837,35.716,39.662,35.815,39.479,35.815z M6.327,33.56	c-0.188-0.701-0.289-1.375-0.318-2.072c-0.012-0.276,0.203-0.51,0.479-0.521c0.289,0.013,0.509,0.202,0.521,0.479	c0.026,0.624,0.116,1.225,0.268,1.786l-0.465,0.203L6.327,33.56z M40.38,31.97c-0.003,0-0.006,0-0.01,0	c-0.276-0.006-0.496-0.233-0.49-0.51c0.011-0.546,0.021-1.227,0.03-1.997c0.003-0.276,0.198-0.471,0.506-0.494	c0.276,0.003,0.498,0.229,0.494,0.506c-0.009,0.774-0.019,1.457-0.03,2.005C40.875,31.752,40.652,31.97,40.38,31.97z M6.5,29.971	c-0.276,0-0.5-0.224-0.5-0.5v-1.995c0-0.276,0.224-0.5,0.5-0.5s0.5,0.224,0.5,0.5v1.995C7,29.747,6.776,29.971,6.5,29.971z M40.43,27.969c-0.001,0-0.003,0-0.004,0c-0.276-0.003-0.498-0.229-0.496-0.505l0.016-1.998c0.002-0.274,0.226-0.496,0.5-0.496	c0.001,0,0.002,0,0.003,0c0.276,0.002,0.499,0.228,0.497,0.504l-0.016,2C40.928,27.748,40.704,27.969,40.43,27.969z M6.5,25.981	c-0.276,0-0.5-0.224-0.5-0.5v-1.995c0-0.276,0.224-0.5,0.5-0.5S7,23.21,7,23.486v1.995C7,25.758,6.776,25.981,6.5,25.981z M40.46,23.971c-0.001,0-0.002,0-0.003,0c-0.276-0.002-0.499-0.227-0.497-0.503l0.011-1.999c0.001-0.275,0.225-0.497,0.5-0.497	c0.001,0,0.002,0,0.002,0c0.276,0.001,0.499,0.227,0.498,0.503l-0.011,1.999C40.959,23.749,40.735,23.971,40.46,23.971z M6.5,21.991	c-0.276,0-0.5-0.224-0.5-0.5v-1.995c0-0.276,0.224-0.5,0.5-0.5S7,19.22,7,19.496v1.995C7,21.768,6.776,21.991,6.5,21.991z M40.48,19.973c0,0-0.001,0-0.002,0c-0.276-0.001-0.499-0.226-0.498-0.502l0.007-2c0.001-0.275,0.225-0.498,0.5-0.498	c0,0,0.001,0,0.001,0c0.276,0.001,0.5,0.226,0.499,0.502l-0.007,2C40.979,19.75,40.755,19.973,40.48,19.973z M6.5,18.002	c-0.276,0-0.5-0.224-0.5-0.5v-1.491c0-0.22,0.003-0.373,0.01-0.527c0.013-0.275,0.236-0.525,0.523-0.476	c0.276,0.013,0.489,0.247,0.476,0.522C7.003,15.667,7,15.805,7,15.942v1.56C7,17.778,6.776,18.002,6.5,18.002z M40.49,16.001	c-0.266,0-0.488-0.21-0.499-0.479c-0.026-0.622-0.12-1.22-0.285-1.826l0.475-0.162l0.488-0.11c0.185,0.68,0.292,1.368,0.321,2.056	c0.012,0.276-0.203,0.51-0.479,0.521C40.504,16.001,40.498,16.001,40.49,16.001z M6.816,14.04c-0.041,0-0.082-0.005-0.123-0.015	c-0.268-0.067-0.43-0.34-0.363-0.607c0.166-0.659,0.418-1.32,0.751-1.966c0.126-0.246,0.428-0.344,0.673-0.216	C8,11.362,8.097,11.664,7.97,11.909c-0.301,0.586-0.521,1.159-0.67,1.753C7.243,13.889,7.04,14.04,6.816,14.04z M39.473,12.175	c-0.182,0-0.357-0.1-0.446-0.272c-0.286-0.559-0.632-1.091-1.03-1.58c-0.174-0.215-0.142-0.529,0.073-0.703	c0.214-0.176,0.529-0.141,0.704,0.072c0.442,0.544,0.827,1.135,1.145,1.756c0.125,0.246,0.028,0.547-0.218,0.673	C39.627,12.157,39.549,12.175,39.473,12.175z M8.609,10.51c-0.11,0-0.222-0.036-0.314-0.112C8.08,10.224,8.047,9.909,8.221,9.694	c0.441-0.543,0.94-1.04,1.483-1.479c0.215-0.174,0.53-0.14,0.703,0.074c0.174,0.215,0.141,0.529-0.074,0.703	c-0.489,0.396-0.938,0.844-1.335,1.333C8.899,10.446,8.754,10.51,8.609,10.51z M36.975,9.1c-0.11,0-0.222-0.036-0.314-0.111	c-0.492-0.397-1.024-0.743-1.582-1.025c-0.246-0.125-0.345-0.426-0.22-0.672c0.125-0.246,0.425-0.342,0.672-0.221	c0.621,0.314,1.213,0.698,1.759,1.141c0.215,0.174,0.248,0.488,0.074,0.703C37.266,9.036,37.121,9.1,36.975,9.1z M11.689,8.02	c-0.183,0-0.358-0.1-0.446-0.273c-0.125-0.246-0.027-0.548,0.22-0.673c0.625-0.317,1.285-0.567,1.961-0.744	c0.267-0.074,0.54,0.09,0.61,0.356c0.07,0.268-0.09,0.541-0.357,0.61c-0.606,0.159-1.199,0.384-1.762,0.67	C11.843,8.002,11.766,8.02,11.689,8.02z M33.445,7.309c-0.042,0-0.085-0.005-0.128-0.017c-0.608-0.16-1.235-0.256-1.862-0.282	c-0.276-0.013-0.49-0.246-0.478-0.521s0.249-0.481,0.521-0.479c0.699,0.03,1.397,0.137,2.074,0.315	c0.267,0.07,0.426,0.344,0.356,0.611C33.869,7.16,33.667,7.309,33.445,7.309z M15.518,7.01c-0.265,0-0.486-0.208-0.499-0.476	c-0.013-0.276,0.2-0.511,0.476-0.523C15.644,6.003,15.793,6,15.944,6h1.569c0.276,0,0.5,0.224,0.5,0.5S17.79,7,17.513,7h-1.569	c-0.134,0-0.269,0.003-0.402,0.009C15.534,7.01,15.526,7.01,15.518,7.01z M29.482,7h-1.995c-0.276,0-0.5-0.224-0.5-0.5	s0.224-0.5,0.5-0.5h1.995c0.276,0,0.5,0.224,0.5,0.5S29.759,7,29.482,7z M25.493,7h-1.995c-0.276,0-0.5-0.224-0.5-0.5	s0.224-0.5,0.5-0.5h1.995c0.276,0,0.5,0.224,0.5,0.5S25.769,7,25.493,7z M21.503,7h-1.995c-0.276,0-0.5-0.224-0.5-0.5	s0.224-0.5,0.5-0.5h1.995c0.276,0,0.5,0.224,0.5,0.5S21.779,7,21.503,7z"/><path fill="#ea4731" d="M31.056,36H15.944c-0.295,0-0.583-0.025-0.854-0.076l-0.385-0.084	c-0.279-0.069-0.543-0.164-0.799-0.283c-0.148-0.067-0.221-0.104-0.292-0.144c-0.143-0.079-0.278-0.162-0.41-0.253	c-0.144-0.099-0.27-0.194-0.391-0.295c-0.228-0.191-0.426-0.387-0.607-0.597c-0.153-0.175-0.271-0.331-0.394-0.514	c-0.182-0.273-0.318-0.527-0.417-0.777l-0.038-0.094c-0.08-0.192-0.144-0.385-0.188-0.568l-0.034-0.132	C11.046,31.85,11,31.468,11,31.056V16.011c0-0.339,0.024-0.637,0.076-0.938c0.025-0.125,0.049-0.23,0.077-0.335l0.025-0.098	c0.076-0.301,0.196-0.609,0.367-0.936c0.11-0.215,0.22-0.393,0.333-0.563c0.689-1.008,1.763-1.738,2.951-2.011	C15.202,11.043,15.567,11,15.944,11h15.111c1.987,0,3.83,1.249,4.587,3.108c0.101,0.247,0.147,0.409,0.169,0.503l0.038,0.144	c0.084,0.31,0.132,0.618,0.146,0.937L36,15.801l0,15.198c0,0.377-0.028,0.696-0.088,1.007c-0.084,0.435-0.235,0.864-0.446,1.277	c-0.087,0.169-0.191,0.345-0.317,0.53c-0.081,0.121-0.149,0.209-0.215,0.293c-0.225,0.281-0.458,0.521-0.691,0.711	c-0.279,0.231-0.532,0.409-0.793,0.558c-0.077,0.042-0.146,0.08-0.217,0.113l-0.142,0.065c-0.094,0.045-0.194,0.089-0.3,0.129	c-0.243,0.091-0.463,0.157-0.659,0.199l-0.598,0.092C31.404,35.991,31.251,36,31.056,36z M15.944,12	c-0.299,0-0.589,0.034-0.889,0.104c-0.935,0.215-1.811,0.811-2.348,1.596c-0.09,0.136-0.182,0.284-0.275,0.465	c-0.135,0.259-0.228,0.495-0.286,0.724l-0.027,0.106c-0.024,0.088-0.043,0.176-0.062,0.265C12.02,15.486,12,15.729,12,16.011v15.045	c0,0.324,0.035,0.619,0.104,0.874l0.037,0.146c0.034,0.143,0.082,0.284,0.142,0.429l0.042,0.103c0.074,0.188,0.178,0.38,0.32,0.593	c0.098,0.146,0.192,0.271,0.317,0.414c0.148,0.173,0.311,0.331,0.494,0.485c0.096,0.08,0.199,0.158,0.314,0.237	c0.104,0.071,0.213,0.139,0.326,0.201c0.055,0.03,0.111,0.058,0.229,0.111c0.202,0.095,0.406,0.167,0.609,0.218l0.354,0.078	C15.483,34.98,15.709,35,15.944,35h15.111c0.141,0,0.252-0.005,0.348-0.018l0.513-0.077c0.156-0.034,0.329-0.087,0.522-0.159	c0.079-0.029,0.152-0.063,0.227-0.099l0.263-0.129c0.235-0.132,0.442-0.278,0.677-0.474c0.183-0.148,0.365-0.337,0.544-0.562	c0.051-0.064,0.104-0.133,0.168-0.228c0.102-0.151,0.187-0.292,0.256-0.429c0.169-0.329,0.288-0.67,0.355-1.013	C34.978,31.569,35,31.31,35,30.999l0.001-15.171l-0.005-0.089c-0.011-0.249-0.048-0.485-0.114-0.729l-0.042-0.159	c-0.018-0.076-0.052-0.189-0.124-0.366C34.111,12.999,32.64,12,31.056,12H15.944z"/><path fill="#ea4731" d="M23.5,30c-3.584,0-6.5-2.916-6.5-6.5s2.916-6.5,6.5-6.5s6.5,2.916,6.5,6.5S27.084,30,23.5,30z M23.5,18c-3.033,0-5.5,2.468-5.5,5.5s2.467,5.5,5.5,5.5s5.5-2.468,5.5-5.5S26.533,18,23.5,18z"/></svg>